<svg width="34" height="38" viewBox="0 0 34 38" fill="none" xmlns="http://www.w3.org/2000/svg">
<path d="M27.2775 4.28773V5.03773H28.0275H32.7775V36.5377H1.27747V5.03773H6.02747H6.77747V4.28773V1.37106H8.94413V4.28773V5.03773H9.69413H24.3608H25.1108V4.28773V1.37106H27.2775V4.28773ZM28.0275 32.5377H28.7775V31.7877V29.9544C28.7775 28.7651 28.1779 27.7677 27.3398 26.9747C26.5054 26.1852 25.3847 25.5468 24.1929 25.0462C21.8123 24.0464 18.9637 23.5211 17.0275 23.5211C15.0912 23.5211 12.2427 24.0464 9.86204 25.0462C8.67027 25.5468 7.54956 26.1852 6.71513 26.9747C5.877 27.7677 5.27747 28.7651 5.27747 29.9544V31.7877V32.5377H6.02747H28.0275ZM23.2775 15.2877C23.2775 11.8302 20.485 9.03773 17.0275 9.03773C13.5699 9.03773 10.7775 11.8302 10.7775 15.2877C10.7775 18.7453 13.5699 21.5377 17.0275 21.5377C20.485 21.5377 23.2775 18.7453 23.2775 15.2877Z" fill="#111111" stroke="#9A47FF" stroke-width="1.5"/>
</svg>
