<?xml version="1.0" encoding="utf-8"?>
<!-- Generator: Adobe Illustrator 25.3.0, SVG Export Plug-In . SVG Version: 6.00 Build 0)  -->
<svg version="1.1" id="Layer_1" xmlns="http://www.w3.org/2000/svg" xmlns:xlink="http://www.w3.org/1999/xlink" x="0px" y="0px"
	 viewBox="0 0 34 38" style="enable-background:new 0 0 34 38;" xml:space="preserve">
<style type="text/css">
	.st0{fill:#111111;}
	.st1{fill:#111111;stroke:#9A47FF;stroke-width:1.5;}
</style>
<g>
	<rect x="4.8" y="7.2" class="st0" width="25.2" height="26.8"/>
	<path class="st1" d="M27.5,4.5v0.8h0.8H33v31.5H1.5V5.2h4.8H7V4.5V1.6h2.2v2.9v0.8H10h14.7h0.8V4.5V1.6h2.2V4.5z M28.3,32.7H29V32
		v-1.8c0-1.2-0.6-2.2-1.4-3c-0.8-0.8-2-1.4-3.1-1.9c-2.4-1-5.2-1.5-7.2-1.5s-4.8,0.5-7.2,1.5c-1.2,0.5-2.3,1.1-3.1,1.9
		c-0.8,0.8-1.4,1.8-1.4,3V32v0.7h0.8H28.3z M23.5,15.5c0-3.5-2.8-6.3-6.2-6.3c-3.5,0-6.2,2.8-6.2,6.3c0,3.5,2.8,6.2,6.2,6.2
		C20.7,21.7,23.5,19,23.5,15.5z"/>
</g>
</svg>
