<svg width="37" height="38" viewBox="0 0 37 38" fill="none" xmlns="http://www.w3.org/2000/svg">
<path d="M35.0807 32.1922V19.2207C35.0808 18.3182 34.8967 17.4253 34.5396 16.5965C34.1825 15.7677 33.6599 15.0205 33.0039 14.4007L20.7833 2.85137C20.1678 2.26948 19.3529 1.94525 18.5059 1.94525C17.6589 1.94525 16.844 2.26948 16.2285 2.85137L4.00786 14.4007C3.35187 15.0205 2.82931 15.7677 2.4722 16.5965C2.11508 17.4253 1.93093 18.3182 1.93103 19.2207V32.1922C1.93103 33.0714 2.28028 33.9145 2.90196 34.5362C3.52364 35.1579 4.36682 35.5071 5.246 35.5071H31.7658C32.6449 35.5071 33.4881 35.1579 34.1098 34.5362C34.7315 33.9145 35.0807 33.0714 35.0807 32.1922Z" stroke="white" stroke-width="3" stroke-linecap="round" stroke-linejoin="round"/>
</svg>
