<svg width="38" height="38" viewBox="0 0 38 38" fill="none" xmlns="http://www.w3.org/2000/svg">
<path d="M35.6022 32.1922V19.2207C35.6023 18.3182 35.4182 17.4253 35.0611 16.5965C34.7039 15.7677 34.1814 15.0205 33.5254 14.4007L21.3047 2.85137C20.6893 2.26948 19.8744 1.94525 19.0274 1.94525C18.1804 1.94525 17.3655 2.26948 16.75 2.85137L4.52934 14.4007C3.87335 15.0205 3.35079 15.7677 2.99368 16.5965C2.63657 17.4253 2.45242 18.3182 2.45251 19.2207V32.1922C2.45251 33.0714 2.80177 33.9145 3.42345 34.5362C4.04512 35.1579 4.8883 35.5071 5.76748 35.5071H32.2872C33.1664 35.5071 34.0096 35.1579 34.6313 34.5362C35.253 33.9145 35.6022 33.0714 35.6022 32.1922Z" fill="#111111" stroke="#9A47FF" stroke-width="3" stroke-linecap="round" stroke-linejoin="round"/>
</svg>
