<svg width="34" height="43" viewBox="0 0 34 43" fill="none" xmlns="http://www.w3.org/2000/svg">
<path d="M21.4173 16.5161C20.1145 17.3866 18.5829 17.8512 17.016 17.8512C14.915 17.8512 12.9 17.0166 11.4143 15.5309C9.92864 14.0452 9.09399 12.0302 9.09399 9.92919C9.09399 8.36236 9.55861 6.83071 10.4291 5.52794C11.2996 4.22516 12.5368 3.20978 13.9844 2.61017C15.432 2.01057 17.0248 1.85369 18.5615 2.15937C20.0983 2.46504 21.5098 3.21954 22.6178 4.32746C23.7257 5.43537 24.4802 6.84695 24.7859 8.38367C25.0915 9.9204 24.9346 11.5133 24.3351 12.9608C23.7354 14.4084 22.7201 15.6456 21.4173 16.5161Z" fill="#111111" stroke="#9A47FF" stroke-width="3"/>
<path d="M32.006 40.4859L32.0046 40.5184V40.551C32.0046 40.7779 31.9145 40.9955 31.754 41.1559L32.8147 42.2166L31.754 41.1559C31.5936 41.3163 31.376 41.4065 31.1491 41.4065H2.88298C2.65608 41.4065 2.43848 41.3163 2.27804 41.1559C2.11778 40.9956 2.02767 40.7783 2.02747 40.5517C2.03172 37.5919 2.91217 34.6997 4.55784 32.2395C6.20374 29.7791 8.54136 27.8611 11.2759 26.7274C14.0104 25.5937 17.0194 25.2952 19.9234 25.8694C22.8507 26.4482 25.1747 27.5445 27.5937 29.9539C29.2925 31.6461 30.4136 33.0459 31.1085 34.5972C31.7942 36.1282 32.117 37.927 32.006 40.4859Z" fill="#111111" stroke="#9A47FF" stroke-width="3"/>
</svg>
