<svg width="34" height="39" viewBox="0 0 34 39" fill="none" xmlns="http://www.w3.org/2000/svg">
<rect x="2.47839" y="2.49936" width="24.304" height="34.5292" fill="#111111"/>
<rect x="5.75317" y="6.86581" width="25.8954" height="24.9409" fill="#111111"/>
<path d="M24.0989 0.90683H5.24175C3.99145 0.90683 2.79235 1.40351 1.90825 2.28761C1.02415 3.17171 0.527466 4.37081 0.527466 5.62112V33.9068C0.527466 35.1571 1.02415 36.3562 1.90825 37.2403C2.79235 38.1244 3.99145 38.6211 5.24175 38.6211H24.0989C25.3492 38.6211 26.5483 38.1244 27.4324 37.2403C28.3165 36.3562 28.8132 35.1571 28.8132 33.9068C30.0635 33.9068 31.2626 33.4101 32.1467 32.526C33.0308 31.6419 33.5275 30.4429 33.5275 29.1925V10.3354C33.5275 9.0851 33.0308 7.886 32.1467 7.0019C31.2626 6.1178 30.0635 5.62112 28.8132 5.62112C28.8132 4.37081 28.3165 3.17171 27.4324 2.28761C26.5483 1.40351 25.3492 0.90683 24.0989 0.90683V0.90683ZM28.8132 7.97826C29.4383 7.97826 30.0379 8.2266 30.4799 8.66865C30.922 9.1107 31.1703 9.71025 31.1703 10.3354V29.1925C31.1703 29.8177 30.922 30.4172 30.4799 30.8593C30.0379 31.3013 29.4383 31.5497 28.8132 31.5497V7.97826ZM2.88461 5.62112C2.88461 4.99596 3.13295 4.39641 3.575 3.95436C4.01705 3.51231 4.6166 3.26397 5.24175 3.26397H24.0989C24.724 3.26397 25.3236 3.51231 25.7656 3.95436C26.2077 4.39641 26.456 4.99596 26.456 5.62112V33.9068C26.456 34.532 26.2077 35.1315 25.7656 35.5736C25.3236 36.0156 24.724 36.264 24.0989 36.264H5.24175C4.6166 36.264 4.01705 36.0156 3.575 35.5736C3.13295 35.1315 2.88461 34.532 2.88461 33.9068V5.62112Z" fill="#9A47FF"/>
</svg>
