<svg width="34" height="39" viewBox="0 0 34 39" fill="none" xmlns="http://www.w3.org/2000/svg">
<path d="M23.5773 0.90683H4.72015C3.46984 0.90683 2.27074 1.40351 1.38664 2.28761C0.502542 3.17171 0.00585938 4.37081 0.00585938 5.62112V33.9068C0.00585938 35.1571 0.502542 36.3562 1.38664 37.2403C2.27074 38.1244 3.46984 38.6211 4.72015 38.6211H23.5773C24.8276 38.6211 26.0267 38.1244 26.9108 37.2403C27.7949 36.3562 28.2916 35.1571 28.2916 33.9068C29.5419 33.9068 30.741 33.4101 31.6251 32.526C32.5092 31.6419 33.0059 30.4429 33.0059 29.1925V10.3354C33.0059 9.0851 32.5092 7.886 31.6251 7.0019C30.741 6.1178 29.5419 5.62112 28.2916 5.62112C28.2916 4.37081 27.7949 3.17171 26.9108 2.28761C26.0267 1.40351 24.8276 0.90683 23.5773 0.90683V0.90683ZM28.2916 7.97826C28.9167 7.97826 29.5163 8.2266 29.9583 8.66865C30.4004 9.1107 30.6487 9.71025 30.6487 10.3354V29.1925C30.6487 29.8177 30.4004 30.4172 29.9583 30.8593C29.5163 31.3013 28.9167 31.5497 28.2916 31.5497V7.97826ZM2.363 5.62112C2.363 4.99596 2.61134 4.39641 3.05339 3.95436C3.49544 3.51231 4.09499 3.26397 4.72015 3.26397H23.5773C24.2024 3.26397 24.802 3.51231 25.244 3.95436C25.6861 4.39641 25.9344 4.99596 25.9344 5.62112V33.9068C25.9344 34.532 25.6861 35.1315 25.244 35.5736C24.802 36.0156 24.2024 36.264 23.5773 36.264H4.72015C4.09499 36.264 3.49544 36.0156 3.05339 35.5736C2.61134 35.1315 2.363 34.532 2.363 33.9068V5.62112Z" fill="white"/>
</svg>
