<svg width="35" height="34" viewBox="0 0 35 34" fill="none" xmlns="http://www.w3.org/2000/svg">
<path d="M2.36437 4.64057C2.30572 4.58217 2.23389 4.53871 2.15494 4.51386C2.07599 4.48901 1.99222 4.4835 1.9107 4.49778C1.82917 4.51206 1.75226 4.54572 1.68646 4.59592C1.62065 4.64612 1.56787 4.7114 1.53256 4.78626C0.987284 5.94089 0.812846 7.23602 1.0332 8.49376C1.25356 9.75151 1.8579 10.9102 2.76323 11.8107C4.52915 13.5652 7.30255 14.178 9.62129 13.3596L21.5446 25.2829C21.3111 25.9453 21.1937 26.6431 21.1974 27.3454C21.1974 29.1165 21.9021 30.8339 23.1318 32.0563C24.0252 32.9536 25.1689 33.5601 26.4129 33.7963C27.657 34.0324 28.9433 33.8873 30.1035 33.3799C30.1812 33.3467 30.2494 33.2948 30.3023 33.2289C30.3552 33.163 30.391 33.0851 30.4066 33.0021C30.4223 32.919 30.4172 32.8334 30.3919 32.7528C30.3666 32.6722 30.3219 32.5991 30.2616 32.5399L26.6357 28.9326C26.396 28.6949 26.364 28.3116 26.5655 28.1132L28.195 26.556C28.4233 26.3297 28.7757 26.34 29.0165 26.5787L32.633 30.1725C32.6916 30.231 32.7633 30.2744 32.8422 30.2993C32.9211 30.3241 33.0048 30.3296 33.0863 30.3154C33.1677 30.3011 33.2445 30.2674 33.3102 30.2172C33.376 30.167 33.4286 30.1017 33.4638 30.0268C33.8627 29.1906 34.0703 28.276 34.0714 27.3496C34.0714 25.7252 33.4184 24.1825 32.2321 23.0024C30.4672 21.2479 27.6938 20.6351 25.3751 21.4545L13.4507 9.53121C13.6842 8.86843 13.8016 8.17037 13.7979 7.46769C13.7979 5.69661 13.0932 3.97925 11.8636 2.75685C10.9701 1.85954 9.82644 1.25305 8.5824 1.01686C7.33837 0.780663 6.05199 0.925777 4.89184 1.43318C4.81418 1.46644 4.74589 1.51831 4.69303 1.58421C4.64016 1.65011 4.60433 1.72802 4.5887 1.81105C4.57308 1.89408 4.57814 1.97968 4.60343 2.06029C4.62873 2.1409 4.67348 2.21404 4.73375 2.27326L8.35962 5.88053C8.46736 5.99199 8.52672 6.14149 8.52478 6.2965C8.52285 6.45151 8.45977 6.59948 8.34929 6.70821L6.80036 8.25714C6.74731 8.3124 6.68365 8.35639 6.6132 8.38647C6.54275 8.41654 6.46696 8.43209 6.39036 8.43219C6.31375 8.43229 6.23792 8.41693 6.16739 8.38703C6.09687 8.35712 6.0331 8.3133 5.97991 8.25817L2.36437 4.64057Z" fill="white"/>
<path d="M8.9684 31.5665L1.82446 33.9068C1.60744 33.9065 1.39938 33.8202 1.24592 33.6667C1.09246 33.5132 1.00613 33.3052 1.00586 33.0882L3.34608 26.2831C3.34579 26.1756 3.36684 26.069 3.40801 25.9697C3.44918 25.8704 3.50966 25.7802 3.58593 25.7044L22.174 7.11629L27.7963 12.7386L8.9684 31.5665ZM33.7664 6.76852L28.954 11.5809L23.3317 5.95857L28.1441 1.14619C28.2201 1.07018 28.3103 1.00988 28.4096 0.968746C28.5089 0.927607 28.6154 0.906433 28.7229 0.906433C28.8303 0.906433 28.9368 0.927607 29.0361 0.968746C29.1354 1.00988 29.2256 1.07018 29.3016 1.14619L33.7664 5.6108C33.9197 5.76443 34.0059 5.97261 34.0059 6.18966C34.0059 6.40671 33.9197 6.61489 33.7664 6.76852Z" fill="white"/>
</svg>
