<svg width="34" height="34" viewBox="0 0 34 34" fill="none" xmlns="http://www.w3.org/2000/svg">
<path d="M9.33888 12.4951L9.6731 12.8293L21.5964 24.7526L21.9305 25.0867L21.7734 25.5323C21.5686 26.1133 21.4656 26.7253 21.4689 27.3414L21.4689 27.3454C21.4689 28.9218 22.0975 30.4462 23.182 31.5244L23.1847 31.5271C23.9716 32.3173 24.9787 32.8514 26.0743 33.0594C27.0562 33.2458 28.068 33.1625 29.0029 32.8216L25.6292 29.4652L9.33888 12.4951ZM9.33888 12.4951L8.89316 12.6524M9.33888 12.4951L8.89316 12.6524M8.89316 12.6524C6.84534 13.3751 4.37474 12.8298 2.81362 11.2789C2.0181 10.4877 1.48706 9.46953 1.29343 8.36434C1.11914 7.3695 1.22594 6.34804 1.59847 5.41398L4.96719 8.78462C5.08932 8.90969 5.23511 9.00926 5.39612 9.07753C5.55955 9.14682 5.73528 9.18242 5.91279 9.18219C6.09028 9.18197 6.26592 9.14594 6.42918 9.07623C6.58962 9.00773 6.73484 8.90811 6.85647 8.78317L8.39685 7.24276C8.39769 7.24193 8.39853 7.2411 8.39937 7.24027C8.64923 6.99307 8.79182 6.65742 8.79621 6.30586C8.80061 5.95313 8.66553 5.61292 8.42036 5.35928L8.41527 5.35401L8.41007 5.34884L5.03544 1.99152C5.97034 1.65057 6.98214 1.56728 7.96399 1.75369C9.05956 1.9617 10.0667 2.49581 10.8536 3.28604L10.8563 3.28874C11.9408 4.36686 12.5694 5.89126 12.5694 7.46769L12.5694 7.47163C12.5726 8.08813 12.4696 8.70057 12.2648 9.28206L12.1079 9.72758L12.4419 10.0616L24.3663 21.9849L24.7006 22.3192M8.89316 12.6524L24.7006 22.3192M25.5687 27.5709L25.5688 27.5709L27.1943 26.0176C27.7427 25.4803 28.5631 25.5475 29.066 26.0461L29.0666 26.0467L32.4419 29.4008C32.7055 28.7498 32.842 28.0532 32.8429 27.3487L25.5687 27.5709ZM25.5687 27.5709L25.5607 27.5787M25.5687 27.5709L25.5607 27.5787M25.5607 27.5787C25.2674 27.8676 25.182 28.2508 25.2093 28.5717M25.5607 27.5787L25.2093 28.5717M24.7006 22.3192L25.1465 22.1617M24.7006 22.3192L25.1465 22.1617M25.1465 22.1617C27.1943 21.438 29.6649 21.9835 31.2248 23.5343M25.1465 22.1617L31.2248 23.5343M25.2093 28.5717C25.2368 28.8954 25.3799 29.2176 25.6282 29.4643L25.2093 28.5717ZM31.2248 23.5343C32.2741 24.5782 32.8426 25.9311 32.8429 27.3487L31.2248 23.5343Z" fill="#111111" stroke="#9A47FF" stroke-width="1.5"/>
<path d="M3.5768 26.527L3.61791 26.4075L3.61756 26.2811C3.61754 26.2728 3.61917 26.2645 3.62235 26.2568C3.62554 26.2492 3.63021 26.2422 3.63612 26.2363L3.63775 26.2347L21.6955 8.17695L26.2572 12.7386L8.0862 30.9096L1.30583 33.1307L3.5768 26.527ZM28.1959 1.67652L28.196 1.67647C28.2023 1.67012 28.2099 1.66508 28.2182 1.66164C28.2265 1.6582 28.2354 1.65643 28.2443 1.65643C28.2533 1.65643 28.2622 1.6582 28.2705 1.66164L28.5576 0.968746L28.2705 1.66164C28.2788 1.66508 28.2864 1.67012 28.2927 1.67647L28.2928 1.67654L32.7571 6.14062C32.7701 6.15363 32.7773 6.17127 32.7773 6.18966C32.7773 6.20805 32.77 6.22569 32.7571 6.2387L28.4755 10.5202L23.9139 5.95857L28.1959 1.67652Z" fill="#111111" stroke="#9A47FF" stroke-width="1.5"/>
</svg>
