<?xml version="1.0" encoding="utf-8"?>
<!-- Generator: Adobe Illustrator 25.3.0, SVG Export Plug-In . SVG Version: 6.00 Build 0)  -->
<svg version="1.1" id="Layer_1" xmlns="http://www.w3.org/2000/svg" xmlns:xlink="http://www.w3.org/1999/xlink" x="0px" y="0px"
	 viewBox="0 0 34 34" style="enable-background:new 0 0 34 34;" xml:space="preserve">
<style type="text/css">
	.st0{fill:#111111;}
	.st1{fill:#111111;stroke:#9A47FF;stroke-width:1.5;}
</style>
<path class="st0" d="M9.3,12.3c1-1.3,1.2-1.1,2.1-2.5l13.9,10.6L20,23.2L9.3,12.3z"/>
<path class="st1" d="M9.2,11.9 M9.6,11.7 M9.2,11.9 M9.6,11.7c-2,0.7-4.3,0.2-5.9-1.4C2.9,9.5,2.4,8.5,2.2,7.4c-0.2-1-0.1-2,0.3-3
	l3.4,3.4C6,8,6.1,8.1,6.3,8.1c0.2,0.1,0.3,0.1,0.5,0.1c0.2,0,0.4,0,0.5-0.1C7.5,8.1,7.6,8,7.8,7.8l1.5-1.5c0,0,0,0,0,0
	C9.6,6,9.7,5.7,9.7,5.4c0-0.4-0.1-0.7-0.4-0.9l0,0l0,0L5.9,1c0.9-0.3,1.9-0.4,2.9-0.2C10,1,11,1.5,11.8,2.3l0,0
	c1.1,1.1,1.7,2.6,1.7,4.2v0c0,0.6-0.1,1.2-0.3,1.8L13,8.8l0.3,0.3L25.3,21 M24.3,20.9 M24.5,20.9c2-0.7,4.5-0.2,6.1,1.4
	c0.8,0.8,1.3,1.8,1.5,2.9c0.2,1,0.1,2-0.3,3l-3.4-3.4c-0.1-0.1-0.3-0.2-0.4-0.3c-0.2-0.1-0.3-0.1-0.5-0.1c-0.2,0-0.4,0-0.5,0.1
	c-0.2,0.1-0.3,0.2-0.4,0.3L25,26.3c0,0,0,0,0,0c-0.2,0.2-0.4,0.6-0.4,0.9c0,0.4,0.1,0.7,0.4,0.9l0,0l0,0l3.4,3.4
	c-0.9,0.3-1.9,0.4-2.9,0.2c-1.1-0.2-2.1-0.7-2.9-1.5l0,0c-1.1-1.1-1.7-2.6-1.7-4.2v0c0-0.6,0.1-1.2,0.3-1.8l0.2-0.4l-0.3-0.3
	L8.8,11.5"/>
<path class="st1" d="M3.8,25.7l0-0.1l0-0.1c0,0,0,0,0,0c0,0,0,0,0,0l0,0L22,7.4l4.6,4.6L8.3,30.1l-6.8,2.2L3.8,25.7z M28.5,0.9
	L28.5,0.9C28.5,0.9,28.5,0.9,28.5,0.9C28.5,0.9,28.5,0.9,28.5,0.9C28.5,0.9,28.5,0.9,28.5,0.9l0.4-0.7L28.5,0.9
	C28.5,0.9,28.5,0.9,28.5,0.9L28.5,0.9L33,5.3c0,0,0,0,0,0c0,0,0,0,0,0l-4.3,4.3l-4.6-4.6L28.5,0.9z"/>
</svg>
