<svg width="45" height="46" viewBox="0 0 45 46" fill="none" xmlns="http://www.w3.org/2000/svg">
<path d="M0.74622 26.0993L5.7746 26.0993C6.06017 26.0993 6.33331 25.9751 6.52576 25.7579L20.1148 10.0954L20.1148 45.052C20.1148 45.3251 20.3383 45.5486 20.6114 45.5486H24.3362C24.6093 45.5486 24.8328 45.3251 24.8328 45.052L24.8328 10.0954L38.4219 25.7579C38.6081 25.9751 38.8812 26.0993 39.173 26.0993H44.2014C44.6235 26.0993 44.8532 25.5964 44.5739 25.2798L23.9699 1.53469C23.7837 1.31983 23.5534 1.14751 23.2947 1.02941C23.0361 0.911312 22.7551 0.850193 22.4707 0.850193C22.1864 0.850193 21.9053 0.911312 21.6467 1.02941C21.388 1.14751 21.1578 1.31983 20.9715 1.53469L0.373749 25.2798C0.0943947 25.6027 0.324085 26.0993 0.74622 26.0993Z" fill="black"/>
</svg>
